<?xml version="1.0" ?><svg viewBox="0 0 64 64" xmlns="http://www.w3.org/2000/svg"><defs><style>.cls-1,.cls-2{fill:#fcc667;}.cls-1{fill-rule:evenodd;}.cls-3{fill:#fbae36;}.cls-4{fill:#fa8e1b;}</style></defs><g id="Sun"><path class="cls-1" d="M43.88,54.57l1.25,2.18a1,1,0,0,0,1.74-1l-1.26-2.18a1,1,0,0,0-1.37-.36A1,1,0,0,0,43.88,54.57Z"/><path class="cls-1" d="M18.39,53.57l-1.26,2.18a1,1,0,0,0,1.74,1l1.25-2.18a1,1,0,0,0-.36-1.36A1,1,0,0,0,18.39,53.57Z"/><path class="cls-1" d="M6.51,31H4a1,1,0,0,0,0,2H6.51a1,1,0,0,0,0-2Z"/><path class="cls-1" d="M57.49,33H60a1,1,0,0,0,0-2H57.49a1,1,0,0,0,0,2Z"/><path class="cls-1" d="M20.12,9.43,18.87,7.25a1,1,0,0,0-1.74,1l1.26,2.18a1,1,0,0,0,1.37.36A1,1,0,0,0,20.12,9.43Z"/><path class="cls-1" d="M45.61,10.43l1.26-2.18a1,1,0,0,0-1.74-1L43.88,9.43a1,1,0,0,0,.36,1.36A1,1,0,0,0,45.61,10.43Z"/><path class="cls-2" d="M31.71,4.23,29.08,15.74a2.19,2.19,0,0,1-3.61,1.12l-3.42-3a.46.46,0,0,0-.75.43l.85,4.45a2.58,2.58,0,0,1-.73,2.14,2.24,2.24,0,0,1-2,.42L8.1,17.86a.3.3,0,0,0-.29.51l8.65,8a2.42,2.42,0,0,1,.61,2.15,2.39,2.39,0,0,1-1.45,1.53l-4.27,1.49a.45.45,0,0,0,0,.86l4.27,1.48a2.63,2.63,0,0,1,1.5,1.72,2.27,2.27,0,0,1-.66,2l-8.65,8a.3.3,0,0,0,.29.51l11.28-3.49a2.46,2.46,0,0,1,2.17.55,2.4,2.4,0,0,1,.6,2l-.85,4.45a.46.46,0,0,0,.75.43l3.42-3a2.64,2.64,0,0,1,2.23-.44,2.25,2.25,0,0,1,1.38,1.56l2.63,11.51a.3.3,0,0,0,.58,0l2.63-11.51a2.19,2.19,0,0,1,3.61-1.12l3.42,3a.46.46,0,0,0,.75-.43l-.85-4.45a2.61,2.61,0,0,1,.73-2.15,2.27,2.27,0,0,1,2-.42L55.9,46.14a.3.3,0,0,0,.29-.51l-8.65-8a2.2,2.2,0,0,1,.84-3.69l4.27-1.48a.45.45,0,0,0,0-.86l-4.27-1.49a2.62,2.62,0,0,1-1.5-1.71,2.27,2.27,0,0,1,.66-2l8.65-8a.3.3,0,0,0-.29-.51L44.62,21.34a2.19,2.19,0,0,1-2.77-2.56l.85-4.45A.46.46,0,0,0,42,13.9l-3.42,3a2.61,2.61,0,0,1-2.23.43,2.21,2.21,0,0,1-1.38-1.55L32.29,4.23A.3.3,0,0,0,31.71,4.23Z"/><path class="cls-3" d="M43.07,32A11.07,11.07,0,1,1,32,20.93,11.07,11.07,0,0,1,43.07,32Z"/><g id="path1858-2-8-5"><path class="cls-4" d="M32,44.07A12.07,12.07,0,1,1,44.07,32,12.09,12.09,0,0,1,32,44.07Zm0-22.14A10.07,10.07,0,1,0,42.07,32,10.08,10.08,0,0,0,32,21.93Z"/></g></g></svg>